G04 Layer_Physical_Order=2*
G04 Layer_Color=16711680*
%FSLAX25Y25*%
%MOIN*%
G70*
G01*
G75*
%ADD13C,0.01181*%
%ADD15C,0.06299*%
%ADD16R,0.06299X0.06299*%
%ADD17C,0.05905*%
%ADD18R,0.05905X0.05905*%
%ADD19C,0.05984*%
%ADD20R,0.05984X0.05984*%
%ADD21C,0.02756*%
G36*
X408862Y293663D02*
X408873Y293530D01*
X408892Y293403D01*
X408918Y293284D01*
X408952Y293172D01*
X408993Y293066D01*
X409042Y292968D01*
X409098Y292877D01*
X409161Y292793D01*
X409232Y292716D01*
X407303D01*
X407374Y292793D01*
X407438Y292877D01*
X407494Y292968D01*
X407543Y293066D01*
X407584Y293172D01*
X407617Y293284D01*
X407644Y293403D01*
X407662Y293530D01*
X407673Y293663D01*
X407677Y293804D01*
X408858D01*
X408862Y293663D01*
D02*
G37*
G36*
X409161Y296577D02*
X409098Y296493D01*
X409042Y296402D01*
X408993Y296304D01*
X408952Y296199D01*
X408918Y296086D01*
X408892Y295967D01*
X408873Y295840D01*
X408862Y295707D01*
X408858Y295566D01*
X407677D01*
X407673Y295707D01*
X407662Y295840D01*
X407644Y295967D01*
X407617Y296086D01*
X407584Y296199D01*
X407543Y296304D01*
X407494Y296402D01*
X407438Y296493D01*
X407374Y296577D01*
X407303Y296654D01*
X409232D01*
X409161Y296577D01*
D02*
G37*
G36*
X440778Y372905D02*
X441504Y372604D01*
X442126Y372126D01*
X442604Y371504D01*
X442905Y370778D01*
X443002Y370043D01*
X442993Y370000D01*
Y330642D01*
X407500D01*
X407254Y330593D01*
X407046Y330454D01*
X406907Y330246D01*
X406858Y330000D01*
Y299926D01*
X406864Y299895D01*
X406861Y299863D01*
X406888Y299773D01*
X406907Y299681D01*
X406924Y299654D01*
X406934Y299624D01*
X406856Y299152D01*
X406791Y299041D01*
X406376Y298421D01*
X406220Y297638D01*
X406376Y296854D01*
X406820Y296190D01*
X406904Y296134D01*
X406907Y296130D01*
X406932Y296090D01*
X406955Y296044D01*
X406976Y295989D01*
X406995Y295925D01*
X407011Y295851D01*
X407023Y295770D01*
Y293600D01*
X407011Y293519D01*
X406995Y293445D01*
X406976Y293381D01*
X406955Y293326D01*
X406932Y293280D01*
X406907Y293240D01*
X406904Y293236D01*
X406820Y293180D01*
X406376Y292516D01*
X406220Y291732D01*
X406376Y290949D01*
X406791Y290329D01*
X406856Y290218D01*
X406934Y289746D01*
X406924Y289716D01*
X406907Y289689D01*
X406888Y289597D01*
X406861Y289507D01*
X406864Y289475D01*
X406858Y289444D01*
Y237500D01*
X406538Y237038D01*
X406485Y237007D01*
X325000D01*
X324957Y236999D01*
X324222Y237095D01*
X323496Y237396D01*
X322874Y237874D01*
X322396Y238496D01*
X322095Y239222D01*
X321999Y239957D01*
X322007Y240000D01*
Y370000D01*
X321999Y370043D01*
X322095Y370778D01*
X322396Y371504D01*
X322874Y372126D01*
X323496Y372604D01*
X324222Y372905D01*
X324957Y373002D01*
X325000Y372993D01*
X440000D01*
X440043Y373002D01*
X440778Y372905D01*
D02*
G37*
G36*
X442993Y240000D02*
X443002Y239957D01*
X442905Y239222D01*
X442604Y238496D01*
X442126Y237874D01*
X441640Y237500D01*
X407500D01*
Y289444D01*
X407887Y289761D01*
X408268Y289685D01*
X409051Y289841D01*
X409715Y290285D01*
X410159Y290949D01*
X410315Y291732D01*
X410159Y292516D01*
X409715Y293180D01*
X409632Y293236D01*
X409628Y293240D01*
X409604Y293280D01*
X409581Y293326D01*
X409559Y293381D01*
X409540Y293445D01*
X409524Y293519D01*
X409512Y293600D01*
Y295770D01*
X409524Y295851D01*
X409540Y295925D01*
X409559Y295989D01*
X409581Y296044D01*
X409604Y296090D01*
X409628Y296130D01*
X409632Y296134D01*
X409715Y296190D01*
X410159Y296854D01*
X410315Y297638D01*
X410159Y298421D01*
X409715Y299085D01*
X409051Y299529D01*
X408268Y299685D01*
X407887Y299609D01*
X407500Y299926D01*
Y330000D01*
X442993D01*
Y240000D01*
D02*
G37*
%LPC*%
G36*
X370000Y303653D02*
X369055Y303529D01*
X368173Y303164D01*
X367417Y302583D01*
X366836Y301827D01*
X366471Y300945D01*
X366347Y300000D01*
X366471Y299055D01*
X366836Y298173D01*
X367417Y297417D01*
X368173Y296836D01*
X369055Y296471D01*
X370000Y296347D01*
X370946Y296471D01*
X371827Y296836D01*
X372583Y297417D01*
X373164Y298173D01*
X373529Y299055D01*
X373653Y300000D01*
X373529Y300945D01*
X373164Y301827D01*
X372583Y302583D01*
X371827Y303164D01*
X370946Y303529D01*
X370000Y303653D01*
D02*
G37*
G36*
X360000D02*
X359054Y303529D01*
X358173Y303164D01*
X357417Y302583D01*
X356836Y301827D01*
X356746Y301608D01*
X356733Y301593D01*
X356732Y301588D01*
X356729Y301583D01*
X356326Y300768D01*
X355817Y299819D01*
X355547Y299375D01*
X355440Y299219D01*
X355377Y299137D01*
X351441Y295201D01*
X351375Y295152D01*
X351311Y295111D01*
X351252Y295079D01*
X351199Y295056D01*
X351150Y295039D01*
X351104Y295028D01*
X351098Y295028D01*
X351000Y295047D01*
X350217Y294891D01*
X349552Y294448D01*
X349109Y293783D01*
X348953Y293000D01*
X349109Y292217D01*
X349552Y291552D01*
X350217Y291109D01*
X351000Y290953D01*
X351783Y291109D01*
X352448Y291552D01*
X352891Y292217D01*
X353047Y293000D01*
X353028Y293098D01*
X353028Y293104D01*
X353039Y293149D01*
X353056Y293199D01*
X353079Y293252D01*
X353111Y293311D01*
X353152Y293375D01*
X353201Y293441D01*
X356687Y296927D01*
X356696Y296935D01*
X356820Y297016D01*
X356945Y297073D01*
X357075Y297109D01*
X357218Y297126D01*
X357379Y297120D01*
X357562Y297090D01*
X357769Y297031D01*
X357999Y296940D01*
X358112Y296883D01*
X358173Y296836D01*
X359054Y296471D01*
X360000Y296347D01*
X360946Y296471D01*
X361827Y296836D01*
X362583Y297417D01*
X363164Y298173D01*
X363529Y299055D01*
X363653Y300000D01*
X363529Y300945D01*
X363164Y301827D01*
X362583Y302583D01*
X361827Y303164D01*
X360946Y303529D01*
X360000Y303653D01*
D02*
G37*
G36*
X370000Y293653D02*
X369055Y293529D01*
X368173Y293164D01*
X367417Y292583D01*
X366836Y291827D01*
X366471Y290946D01*
X366347Y290000D01*
X366471Y289054D01*
X366836Y288173D01*
X367417Y287417D01*
X368173Y286836D01*
X369055Y286471D01*
X370000Y286347D01*
X370946Y286471D01*
X371827Y286836D01*
X372583Y287417D01*
X373164Y288173D01*
X373529Y289054D01*
X373653Y290000D01*
X373529Y290946D01*
X373164Y291827D01*
X372583Y292583D01*
X371827Y293164D01*
X370946Y293529D01*
X370000Y293653D01*
D02*
G37*
G36*
X360000D02*
X359054Y293529D01*
X358173Y293164D01*
X357417Y292583D01*
X356836Y291827D01*
X356471Y290946D01*
X356347Y290000D01*
X356471Y289054D01*
X356836Y288173D01*
X357417Y287417D01*
X358173Y286836D01*
X359054Y286471D01*
X360000Y286347D01*
X360946Y286471D01*
X361827Y286836D01*
X362583Y287417D01*
X363164Y288173D01*
X363529Y289054D01*
X363653Y290000D01*
X363529Y290946D01*
X363164Y291827D01*
X362583Y292583D01*
X361827Y293164D01*
X360946Y293529D01*
X360000Y293653D01*
D02*
G37*
G36*
X340000Y293614D02*
X339065Y293491D01*
X338193Y293129D01*
X337445Y292555D01*
X336871Y291807D01*
X336509Y290935D01*
X336386Y290000D01*
X336509Y289065D01*
X336871Y288193D01*
X337445Y287445D01*
X338193Y286871D01*
X339065Y286509D01*
X340000Y286386D01*
X340935Y286509D01*
X341807Y286871D01*
X342555Y287445D01*
X343129Y288193D01*
X343491Y289065D01*
X343614Y290000D01*
X343491Y290935D01*
X343129Y291807D01*
X342555Y292555D01*
X341807Y293129D01*
X340935Y293491D01*
X340000Y293614D01*
D02*
G37*
G36*
Y313614D02*
X339065Y313491D01*
X338193Y313129D01*
X337445Y312555D01*
X336871Y311807D01*
X336509Y310935D01*
X336386Y310000D01*
X336509Y309065D01*
X336871Y308193D01*
X337445Y307445D01*
X338193Y306871D01*
X339065Y306509D01*
X340000Y306386D01*
X340935Y306509D01*
X341807Y306871D01*
X342555Y307445D01*
X343129Y308193D01*
X343491Y309065D01*
X343614Y310000D01*
X343491Y310935D01*
X343129Y311807D01*
X342555Y312555D01*
X341807Y313129D01*
X340935Y313491D01*
X340000Y313614D01*
D02*
G37*
G36*
X370000Y313653D02*
X369055Y313529D01*
X368173Y313164D01*
X367417Y312583D01*
X366836Y311827D01*
X366471Y310946D01*
X366347Y310000D01*
X366471Y309054D01*
X366836Y308173D01*
X367417Y307417D01*
X368173Y306836D01*
X369055Y306471D01*
X370000Y306347D01*
X370946Y306471D01*
X371827Y306836D01*
X372583Y307417D01*
X373164Y308173D01*
X373529Y309054D01*
X373653Y310000D01*
X373529Y310946D01*
X373164Y311827D01*
X372583Y312583D01*
X371827Y313164D01*
X370946Y313529D01*
X370000Y313653D01*
D02*
G37*
G36*
X400000Y318812D02*
X399013Y318682D01*
X398094Y318301D01*
X397304Y317696D01*
X396699Y316906D01*
X396318Y315987D01*
X396188Y315000D01*
X396318Y314013D01*
X396699Y313094D01*
X397304Y312304D01*
X398094Y311699D01*
X399013Y311318D01*
X400000Y311188D01*
X400987Y311318D01*
X401906Y311699D01*
X402696Y312304D01*
X403301Y313094D01*
X403682Y314013D01*
X403812Y315000D01*
X403682Y315987D01*
X403301Y316906D01*
X402696Y317696D01*
X401906Y318301D01*
X400987Y318682D01*
X400000Y318812D01*
D02*
G37*
G36*
X390000D02*
X389013Y318682D01*
X388094Y318301D01*
X387304Y317696D01*
X386699Y316906D01*
X386318Y315987D01*
X386188Y315000D01*
X386318Y314013D01*
X386699Y313094D01*
X387304Y312304D01*
X388094Y311699D01*
X389013Y311318D01*
X390000Y311188D01*
X390987Y311318D01*
X391906Y311699D01*
X392696Y312304D01*
X393301Y313094D01*
X393682Y314013D01*
X393812Y315000D01*
X393682Y315987D01*
X393301Y316906D01*
X392696Y317696D01*
X391906Y318301D01*
X390987Y318682D01*
X390000Y318812D01*
D02*
G37*
G36*
X360000Y313653D02*
X359054Y313529D01*
X358173Y313164D01*
X357417Y312583D01*
X356836Y311827D01*
X356471Y310946D01*
X356347Y310000D01*
X356471Y309054D01*
X356509Y308963D01*
X356549Y308782D01*
X356597Y308483D01*
X356620Y308211D01*
X356620Y307965D01*
X356599Y307747D01*
X356560Y307555D01*
X356504Y307387D01*
X356434Y307239D01*
X356347Y307108D01*
X356343Y307102D01*
X348441Y299201D01*
X348375Y299152D01*
X348311Y299111D01*
X348252Y299079D01*
X348199Y299056D01*
X348149Y299039D01*
X348104Y299028D01*
X348098Y299028D01*
X348000Y299047D01*
X347217Y298891D01*
X346552Y298448D01*
X346109Y297783D01*
X345953Y297000D01*
X346109Y296217D01*
X346552Y295552D01*
X347217Y295109D01*
X348000Y294953D01*
X348783Y295109D01*
X349448Y295552D01*
X349891Y296217D01*
X350047Y297000D01*
X350028Y297098D01*
X350028Y297104D01*
X350039Y297149D01*
X350056Y297199D01*
X350079Y297252D01*
X350111Y297311D01*
X350152Y297375D01*
X350201Y297441D01*
X358298Y305539D01*
X358414Y305620D01*
X358583Y305719D01*
X358791Y305822D01*
X359023Y305922D01*
X360409Y306359D01*
X360779Y306449D01*
X360946Y306471D01*
X361827Y306836D01*
X362583Y307417D01*
X363164Y308173D01*
X363529Y309054D01*
X363653Y310000D01*
X363529Y310946D01*
X363164Y311827D01*
X362583Y312583D01*
X361827Y313164D01*
X360946Y313529D01*
X360000Y313653D01*
D02*
G37*
G36*
X340000Y303614D02*
X339065Y303490D01*
X338193Y303129D01*
X337445Y302555D01*
X336871Y301807D01*
X336509Y300935D01*
X336386Y300000D01*
X336509Y299065D01*
X336871Y298193D01*
X337445Y297445D01*
X338193Y296871D01*
X339065Y296510D01*
X340000Y296386D01*
X340935Y296510D01*
X341807Y296871D01*
X342555Y297445D01*
X343129Y298193D01*
X343491Y299065D01*
X343614Y300000D01*
X343491Y300935D01*
X343129Y301807D01*
X342555Y302555D01*
X341807Y303129D01*
X340935Y303490D01*
X340000Y303614D01*
D02*
G37*
G36*
X400000Y308812D02*
X399013Y308682D01*
X398094Y308301D01*
X397304Y307696D01*
X396699Y306906D01*
X396318Y305987D01*
X396188Y305000D01*
X396318Y304013D01*
X396699Y303094D01*
X397304Y302304D01*
X398094Y301699D01*
X399013Y301318D01*
X400000Y301188D01*
X400987Y301318D01*
X401906Y301699D01*
X402696Y302304D01*
X403301Y303094D01*
X403682Y304013D01*
X403812Y305000D01*
X403682Y305987D01*
X403301Y306906D01*
X402696Y307696D01*
X401906Y308301D01*
X400987Y308682D01*
X400000Y308812D01*
D02*
G37*
G36*
X390000D02*
X389013Y308682D01*
X388094Y308301D01*
X387304Y307696D01*
X386699Y306906D01*
X386318Y305987D01*
X386188Y305000D01*
X386318Y304013D01*
X386699Y303094D01*
X387304Y302304D01*
X388094Y301699D01*
X389013Y301318D01*
X390000Y301188D01*
X390987Y301318D01*
X391906Y301699D01*
X392696Y302304D01*
X393301Y303094D01*
X393682Y304013D01*
X393812Y305000D01*
X393682Y305987D01*
X393301Y306906D01*
X392696Y307696D01*
X391906Y308301D01*
X390987Y308682D01*
X390000Y308812D01*
D02*
G37*
G36*
X370000Y283653D02*
X369055Y283529D01*
X368173Y283164D01*
X367417Y282583D01*
X366836Y281827D01*
X366471Y280945D01*
X366347Y280000D01*
X366471Y279054D01*
X366836Y278173D01*
X367417Y277417D01*
X368173Y276836D01*
X369055Y276471D01*
X370000Y276347D01*
X370946Y276471D01*
X371827Y276836D01*
X372583Y277417D01*
X373164Y278173D01*
X373529Y279054D01*
X373653Y280000D01*
X373529Y280945D01*
X373164Y281827D01*
X372583Y282583D01*
X371827Y283164D01*
X370946Y283529D01*
X370000Y283653D01*
D02*
G37*
G36*
X400000Y263812D02*
X399013Y263682D01*
X398094Y263301D01*
X397304Y262696D01*
X396699Y261906D01*
X396318Y260987D01*
X396188Y260000D01*
X396318Y259013D01*
X396699Y258094D01*
X397304Y257304D01*
X398094Y256699D01*
X399013Y256318D01*
X400000Y256188D01*
X400987Y256318D01*
X401906Y256699D01*
X402696Y257304D01*
X403301Y258094D01*
X403682Y259013D01*
X403812Y260000D01*
X403682Y260987D01*
X403301Y261906D01*
X402696Y262696D01*
X401906Y263301D01*
X400987Y263682D01*
X400000Y263812D01*
D02*
G37*
G36*
X390000D02*
X389013Y263682D01*
X388094Y263301D01*
X387304Y262696D01*
X386699Y261906D01*
X386318Y260987D01*
X386188Y260000D01*
X386318Y259013D01*
X386699Y258094D01*
X387304Y257304D01*
X388094Y256699D01*
X389013Y256318D01*
X390000Y256188D01*
X390987Y256318D01*
X391906Y256699D01*
X392696Y257304D01*
X393301Y258094D01*
X393682Y259013D01*
X393812Y260000D01*
X393682Y260987D01*
X393301Y261906D01*
X392696Y262696D01*
X391906Y263301D01*
X390987Y263682D01*
X390000Y263812D01*
D02*
G37*
G36*
X370000Y263653D02*
X369055Y263529D01*
X368173Y263164D01*
X367417Y262583D01*
X366836Y261827D01*
X366471Y260946D01*
X366347Y260000D01*
X366471Y259054D01*
X366836Y258173D01*
X367417Y257417D01*
X368173Y256836D01*
X369055Y256471D01*
X370000Y256347D01*
X370946Y256471D01*
X371827Y256836D01*
X372583Y257417D01*
X373164Y258173D01*
X373529Y259054D01*
X373653Y260000D01*
X373529Y260946D01*
X373164Y261827D01*
X372583Y262583D01*
X371827Y263164D01*
X370946Y263529D01*
X370000Y263653D01*
D02*
G37*
G36*
X360000D02*
X359054Y263529D01*
X358173Y263164D01*
X357417Y262583D01*
X356836Y261827D01*
X356471Y260946D01*
X356347Y260000D01*
X356471Y259054D01*
X356836Y258173D01*
X357417Y257417D01*
X358173Y256836D01*
X359054Y256471D01*
X360000Y256347D01*
X360946Y256471D01*
X361827Y256836D01*
X362583Y257417D01*
X363164Y258173D01*
X363529Y259054D01*
X363653Y260000D01*
X363529Y260946D01*
X363164Y261827D01*
X362583Y262583D01*
X361827Y263164D01*
X360946Y263529D01*
X360000Y263653D01*
D02*
G37*
G36*
X340000Y263812D02*
X339013Y263682D01*
X338094Y263301D01*
X337304Y262696D01*
X336699Y261906D01*
X336318Y260987D01*
X336188Y260000D01*
X336318Y259013D01*
X336699Y258094D01*
X337304Y257304D01*
X338094Y256699D01*
X339013Y256318D01*
X340000Y256188D01*
X340987Y256318D01*
X341906Y256699D01*
X342696Y257304D01*
X343301Y258094D01*
X343682Y259013D01*
X343812Y260000D01*
X343682Y260987D01*
X343301Y261906D01*
X342696Y262696D01*
X341906Y263301D01*
X340987Y263682D01*
X340000Y263812D01*
D02*
G37*
G36*
Y253812D02*
X339013Y253682D01*
X338094Y253301D01*
X337304Y252696D01*
X336699Y251906D01*
X336318Y250987D01*
X336188Y250000D01*
X336318Y249013D01*
X336699Y248094D01*
X337304Y247304D01*
X338094Y246699D01*
X339013Y246318D01*
X340000Y246188D01*
X340987Y246318D01*
X341906Y246699D01*
X342696Y247304D01*
X343301Y248094D01*
X343682Y249013D01*
X343812Y250000D01*
X343682Y250987D01*
X343301Y251906D01*
X342696Y252696D01*
X341906Y253301D01*
X340987Y253682D01*
X340000Y253812D01*
D02*
G37*
G36*
X330000D02*
X329013Y253682D01*
X328094Y253301D01*
X327304Y252696D01*
X326699Y251906D01*
X326318Y250987D01*
X326188Y250000D01*
X326318Y249013D01*
X326699Y248094D01*
X327304Y247304D01*
X328094Y246699D01*
X329013Y246318D01*
X330000Y246188D01*
X330987Y246318D01*
X331906Y246699D01*
X332696Y247304D01*
X333301Y248094D01*
X333682Y249013D01*
X333812Y250000D01*
X333682Y250987D01*
X333301Y251906D01*
X332696Y252696D01*
X331906Y253301D01*
X330987Y253682D01*
X330000Y253812D01*
D02*
G37*
G36*
Y263812D02*
X329013Y263682D01*
X328094Y263301D01*
X327304Y262696D01*
X326699Y261906D01*
X326318Y260987D01*
X326188Y260000D01*
X326318Y259013D01*
X326699Y258094D01*
X327304Y257304D01*
X328094Y256699D01*
X329013Y256318D01*
X330000Y256188D01*
X330987Y256318D01*
X331906Y256699D01*
X332696Y257304D01*
X333301Y258094D01*
X333682Y259013D01*
X333812Y260000D01*
X333682Y260987D01*
X333301Y261906D01*
X332696Y262696D01*
X331906Y263301D01*
X330987Y263682D01*
X330000Y263812D01*
D02*
G37*
G36*
X400000Y283812D02*
X399013Y283682D01*
X398094Y283301D01*
X397304Y282696D01*
X396699Y281906D01*
X396318Y280987D01*
X396188Y280000D01*
X396318Y279013D01*
X396699Y278094D01*
X397304Y277304D01*
X398094Y276699D01*
X399013Y276318D01*
X400000Y276188D01*
X400987Y276318D01*
X401906Y276699D01*
X402696Y277304D01*
X403301Y278094D01*
X403682Y279013D01*
X403812Y280000D01*
X403682Y280987D01*
X403301Y281906D01*
X402696Y282696D01*
X401906Y283301D01*
X400987Y283682D01*
X400000Y283812D01*
D02*
G37*
G36*
X370000Y273653D02*
X369055Y273529D01*
X368173Y273164D01*
X367417Y272583D01*
X366836Y271827D01*
X366471Y270946D01*
X366347Y270000D01*
X366471Y269055D01*
X366836Y268173D01*
X367417Y267417D01*
X368173Y266836D01*
X369055Y266471D01*
X370000Y266347D01*
X370946Y266471D01*
X371827Y266836D01*
X372583Y267417D01*
X373164Y268173D01*
X373529Y269055D01*
X373653Y270000D01*
X373529Y270946D01*
X373164Y271827D01*
X372583Y272583D01*
X371827Y273164D01*
X370946Y273529D01*
X370000Y273653D01*
D02*
G37*
G36*
X360000Y283653D02*
X359054Y283529D01*
X358173Y283164D01*
X357417Y282583D01*
X356836Y281827D01*
X356471Y280945D01*
X356347Y280000D01*
X356471Y279054D01*
X356836Y278173D01*
X357417Y277417D01*
X358173Y276836D01*
X359054Y276471D01*
X360000Y276347D01*
X360946Y276471D01*
X361827Y276836D01*
X362583Y277417D01*
X363164Y278173D01*
X363529Y279054D01*
X363653Y280000D01*
X363529Y280945D01*
X363164Y281827D01*
X362583Y282583D01*
X361827Y283164D01*
X360946Y283529D01*
X360000Y283653D01*
D02*
G37*
G36*
X393150Y283792D02*
X386850D01*
X386605Y283743D01*
X386396Y283604D01*
X386257Y283395D01*
X386208Y283150D01*
Y276850D01*
X386257Y276605D01*
X386396Y276396D01*
X386605Y276257D01*
X386850Y276208D01*
X393150D01*
X393395Y276257D01*
X393604Y276396D01*
X393743Y276605D01*
X393792Y276850D01*
Y283150D01*
X393743Y283395D01*
X393604Y283604D01*
X393395Y283743D01*
X393150Y283792D01*
D02*
G37*
G36*
X360000Y273653D02*
X359054Y273529D01*
X358173Y273164D01*
X357417Y272583D01*
X356836Y271827D01*
X356471Y270946D01*
X356347Y270000D01*
X356471Y269055D01*
X356836Y268173D01*
X357417Y267417D01*
X358173Y266836D01*
X359054Y266471D01*
X360000Y266347D01*
X360946Y266471D01*
X361827Y266836D01*
X362583Y267417D01*
X363164Y268173D01*
X363529Y269055D01*
X363653Y270000D01*
X363529Y270946D01*
X363164Y271827D01*
X362583Y272583D01*
X361827Y273164D01*
X360946Y273529D01*
X360000Y273653D01*
D02*
G37*
G36*
X390000Y273812D02*
X389013Y273682D01*
X388094Y273301D01*
X387304Y272696D01*
X386699Y271906D01*
X386318Y270987D01*
X386188Y270000D01*
X386318Y269013D01*
X386699Y268094D01*
X387304Y267304D01*
X388094Y266699D01*
X389013Y266318D01*
X390000Y266188D01*
X390987Y266318D01*
X391906Y266699D01*
X392696Y267304D01*
X393301Y268094D01*
X393682Y269013D01*
X393812Y270000D01*
X393682Y270987D01*
X393301Y271906D01*
X392696Y272696D01*
X391906Y273301D01*
X390987Y273682D01*
X390000Y273812D01*
D02*
G37*
G36*
X330000D02*
X329013Y273682D01*
X328094Y273301D01*
X327304Y272696D01*
X326699Y271906D01*
X326318Y270987D01*
X326188Y270000D01*
X326318Y269013D01*
X326699Y268094D01*
X327304Y267304D01*
X328094Y266699D01*
X329013Y266318D01*
X330000Y266188D01*
X330987Y266318D01*
X331906Y266699D01*
X332696Y267304D01*
X333301Y268094D01*
X333682Y269013D01*
X333812Y270000D01*
X333682Y270987D01*
X333301Y271906D01*
X332696Y272696D01*
X331906Y273301D01*
X330987Y273682D01*
X330000Y273812D01*
D02*
G37*
G36*
X343150Y273792D02*
X336850D01*
X336605Y273743D01*
X336396Y273604D01*
X336257Y273395D01*
X336208Y273150D01*
Y266850D01*
X336257Y266605D01*
X336396Y266396D01*
X336605Y266257D01*
X336850Y266208D01*
X343150D01*
X343395Y266257D01*
X343604Y266396D01*
X343743Y266605D01*
X343792Y266850D01*
Y273150D01*
X343743Y273395D01*
X343604Y273604D01*
X343395Y273743D01*
X343150Y273792D01*
D02*
G37*
G36*
X400000Y273812D02*
X399013Y273682D01*
X398094Y273301D01*
X397304Y272696D01*
X396699Y271906D01*
X396318Y270987D01*
X396188Y270000D01*
X396318Y269013D01*
X396699Y268094D01*
X397304Y267304D01*
X398094Y266699D01*
X399013Y266318D01*
X400000Y266188D01*
X400987Y266318D01*
X401906Y266699D01*
X402696Y267304D01*
X403301Y268094D01*
X403682Y269013D01*
X403812Y270000D01*
X403682Y270987D01*
X403301Y271906D01*
X402696Y272696D01*
X401906Y273301D01*
X400987Y273682D01*
X400000Y273812D01*
D02*
G37*
G36*
X339409Y339409D02*
X336305D01*
X336356Y339024D01*
X336733Y338114D01*
X337333Y337333D01*
X338114Y336733D01*
X339024Y336356D01*
X339409Y336305D01*
Y339409D01*
D02*
G37*
G36*
X343695D02*
X340591D01*
Y336305D01*
X340976Y336356D01*
X341886Y336733D01*
X342668Y337333D01*
X343267Y338114D01*
X343644Y339024D01*
X343695Y339409D01*
D02*
G37*
G36*
X360000Y343653D02*
X359054Y343529D01*
X358173Y343164D01*
X357417Y342583D01*
X356836Y341827D01*
X356471Y340946D01*
X356347Y340000D01*
X356471Y339054D01*
X356836Y338173D01*
X357417Y337417D01*
X358173Y336836D01*
X359054Y336471D01*
X360000Y336347D01*
X360946Y336471D01*
X361827Y336836D01*
X362583Y337417D01*
X363164Y338173D01*
X363529Y339054D01*
X363653Y340000D01*
X363529Y340946D01*
X363164Y341827D01*
X362583Y342583D01*
X361827Y343164D01*
X360946Y343529D01*
X360000Y343653D01*
D02*
G37*
G36*
X370590Y333734D02*
Y330591D01*
X373734D01*
X373682Y330987D01*
X373301Y331906D01*
X372696Y332696D01*
X371906Y333301D01*
X370987Y333682D01*
X370590Y333734D01*
D02*
G37*
G36*
X360000Y333653D02*
X359054Y333529D01*
X358173Y333164D01*
X357417Y332583D01*
X356836Y331827D01*
X356471Y330945D01*
X356347Y330000D01*
X356471Y329054D01*
X356836Y328173D01*
X357417Y327417D01*
X358173Y326836D01*
X359054Y326471D01*
X360000Y326347D01*
X360946Y326471D01*
X361827Y326836D01*
X362583Y327417D01*
X363164Y328173D01*
X363529Y329054D01*
X363653Y330000D01*
X363529Y330945D01*
X363164Y331827D01*
X362583Y332583D01*
X361827Y333164D01*
X360946Y333529D01*
X360000Y333653D01*
D02*
G37*
G36*
X340000Y333614D02*
X339065Y333490D01*
X338193Y333129D01*
X337445Y332555D01*
X336871Y331807D01*
X336509Y330935D01*
X336386Y330000D01*
X336509Y329065D01*
X336871Y328193D01*
X337445Y327445D01*
X338193Y326871D01*
X339065Y326509D01*
X340000Y326386D01*
X340935Y326509D01*
X341807Y326871D01*
X342555Y327445D01*
X343129Y328193D01*
X343491Y329065D01*
X343614Y330000D01*
X343491Y330935D01*
X343129Y331807D01*
X342555Y332555D01*
X341807Y333129D01*
X340935Y333490D01*
X340000Y333614D01*
D02*
G37*
G36*
X369409Y333734D02*
X369013Y333682D01*
X368094Y333301D01*
X367304Y332696D01*
X366699Y331906D01*
X366318Y330987D01*
X366266Y330591D01*
X369409D01*
Y333734D01*
D02*
G37*
G36*
X425000Y370642D02*
X355000D01*
X354754Y370593D01*
X354546Y370454D01*
X354407Y370246D01*
X354358Y370000D01*
Y345000D01*
X354407Y344754D01*
X354546Y344546D01*
X354754Y344407D01*
X355000Y344358D01*
X425000D01*
X425246Y344407D01*
X425454Y344546D01*
X425593Y344754D01*
X425642Y345000D01*
Y370000D01*
X425593Y370246D01*
X425454Y370454D01*
X425246Y370593D01*
X425000Y370642D01*
D02*
G37*
G36*
X340000Y353614D02*
X339065Y353490D01*
X338193Y353129D01*
X337445Y352555D01*
X336871Y351807D01*
X336509Y350935D01*
X336386Y350000D01*
X336509Y349065D01*
X336871Y348193D01*
X337445Y347445D01*
X338193Y346871D01*
X339065Y346510D01*
X340000Y346386D01*
X340935Y346510D01*
X341807Y346871D01*
X342555Y347445D01*
X343129Y348193D01*
X343491Y349065D01*
X343614Y350000D01*
X343491Y350935D01*
X343129Y351807D01*
X342555Y352555D01*
X341807Y353129D01*
X340935Y353490D01*
X340000Y353614D01*
D02*
G37*
G36*
X342953Y363595D02*
X337047D01*
X336802Y363546D01*
X336593Y363407D01*
X336454Y363198D01*
X336405Y362953D01*
Y357047D01*
X336454Y356802D01*
X336593Y356593D01*
X336802Y356454D01*
X337047Y356405D01*
X342953D01*
X343198Y356454D01*
X343407Y356593D01*
X343546Y356802D01*
X343595Y357047D01*
Y362953D01*
X343546Y363198D01*
X343407Y363407D01*
X343198Y363546D01*
X342953Y363595D01*
D02*
G37*
G36*
X340591Y343695D02*
Y340591D01*
X343695D01*
X343644Y340976D01*
X343267Y341886D01*
X342668Y342668D01*
X341886Y343267D01*
X340976Y343644D01*
X340591Y343695D01*
D02*
G37*
G36*
X370000Y343653D02*
X369055Y343529D01*
X368173Y343164D01*
X367417Y342583D01*
X366836Y341827D01*
X366471Y340946D01*
X366347Y340000D01*
X366471Y339054D01*
X366836Y338173D01*
X367417Y337417D01*
X368173Y336836D01*
X369055Y336471D01*
X370000Y336347D01*
X370946Y336471D01*
X371827Y336836D01*
X372583Y337417D01*
X373164Y338173D01*
X373529Y339054D01*
X373653Y340000D01*
X373529Y340946D01*
X373164Y341827D01*
X372583Y342583D01*
X371827Y343164D01*
X370946Y343529D01*
X370000Y343653D01*
D02*
G37*
G36*
X417953Y343595D02*
X412047D01*
X411801Y343546D01*
X411593Y343407D01*
X411454Y343198D01*
X411405Y342953D01*
Y337047D01*
X411454Y336802D01*
X411593Y336593D01*
X411801Y336454D01*
X412047Y336405D01*
X417953D01*
X418198Y336454D01*
X418407Y336593D01*
X418546Y336802D01*
X418595Y337047D01*
Y342953D01*
X418546Y343198D01*
X418407Y343407D01*
X418198Y343546D01*
X417953Y343595D01*
D02*
G37*
G36*
X339409Y343695D02*
X339024Y343644D01*
X338114Y343267D01*
X337333Y342668D01*
X336733Y341886D01*
X336356Y340976D01*
X336305Y340591D01*
X339409D01*
Y343695D01*
D02*
G37*
G36*
X373734Y329410D02*
X370590D01*
Y326266D01*
X370987Y326318D01*
X371906Y326699D01*
X372696Y327304D01*
X373301Y328094D01*
X373682Y329013D01*
X373734Y329410D01*
D02*
G37*
G36*
X370000Y323653D02*
X369055Y323529D01*
X368173Y323164D01*
X367417Y322583D01*
X366836Y321827D01*
X366471Y320946D01*
X366347Y320000D01*
X366471Y319055D01*
X366836Y318173D01*
X367417Y317417D01*
X368173Y316836D01*
X369055Y316471D01*
X370000Y316347D01*
X370946Y316471D01*
X371827Y316836D01*
X372583Y317417D01*
X373164Y318173D01*
X373529Y319055D01*
X373653Y320000D01*
X373529Y320946D01*
X373164Y321827D01*
X372583Y322583D01*
X371827Y323164D01*
X370946Y323529D01*
X370000Y323653D01*
D02*
G37*
G36*
X360000D02*
X359054Y323529D01*
X358173Y323164D01*
X357417Y322583D01*
X356836Y321827D01*
X356471Y320946D01*
X356347Y320000D01*
X356471Y319055D01*
X356836Y318173D01*
X357417Y317417D01*
X358173Y316836D01*
X359054Y316471D01*
X360000Y316347D01*
X360946Y316471D01*
X361827Y316836D01*
X362583Y317417D01*
X363164Y318173D01*
X363529Y319055D01*
X363653Y320000D01*
X363529Y320946D01*
X363164Y321827D01*
X362583Y322583D01*
X361827Y323164D01*
X360946Y323529D01*
X360000Y323653D01*
D02*
G37*
G36*
X390000Y328812D02*
X389013Y328682D01*
X388094Y328301D01*
X387304Y327696D01*
X386699Y326906D01*
X386318Y325987D01*
X386188Y325000D01*
X386318Y324013D01*
X386699Y323094D01*
X387304Y322304D01*
X388094Y321699D01*
X389013Y321318D01*
X390000Y321188D01*
X390987Y321318D01*
X391906Y321699D01*
X392696Y322304D01*
X393301Y323094D01*
X393682Y324013D01*
X393812Y325000D01*
X393682Y325987D01*
X393301Y326906D01*
X392696Y327696D01*
X391906Y328301D01*
X390987Y328682D01*
X390000Y328812D01*
D02*
G37*
G36*
X340000Y323614D02*
X339065Y323491D01*
X338193Y323129D01*
X337445Y322555D01*
X336871Y321807D01*
X336509Y320935D01*
X336386Y320000D01*
X336509Y319065D01*
X336871Y318193D01*
X337445Y317445D01*
X338193Y316871D01*
X339065Y316510D01*
X340000Y316386D01*
X340935Y316510D01*
X341807Y316871D01*
X342555Y317445D01*
X343129Y318193D01*
X343491Y319065D01*
X343614Y320000D01*
X343491Y320935D01*
X343129Y321807D01*
X342555Y322555D01*
X341807Y323129D01*
X340935Y323491D01*
X340000Y323614D01*
D02*
G37*
G36*
X403150Y328792D02*
X396850D01*
X396605Y328743D01*
X396396Y328604D01*
X396257Y328395D01*
X396208Y328150D01*
Y321850D01*
X396257Y321605D01*
X396396Y321396D01*
X396605Y321257D01*
X396850Y321208D01*
X403150D01*
X403395Y321257D01*
X403604Y321396D01*
X403743Y321605D01*
X403792Y321850D01*
Y328150D01*
X403743Y328395D01*
X403604Y328604D01*
X403395Y328743D01*
X403150Y328792D01*
D02*
G37*
G36*
X369409Y329410D02*
X366266D01*
X366318Y329013D01*
X366699Y328094D01*
X367304Y327304D01*
X368094Y326699D01*
X369013Y326318D01*
X369409Y326266D01*
Y329410D01*
D02*
G37*
%LPD*%
G36*
X352883Y294047D02*
X352786Y293945D01*
X352699Y293843D01*
X352623Y293740D01*
X352557Y293637D01*
X352501Y293534D01*
X352456Y293430D01*
X352421Y293327D01*
X352396Y293223D01*
X352382Y293118D01*
X352378Y293014D01*
X351014Y294378D01*
X351118Y294382D01*
X351223Y294396D01*
X351327Y294421D01*
X351431Y294456D01*
X351534Y294501D01*
X351637Y294557D01*
X351740Y294623D01*
X351843Y294699D01*
X351945Y294786D01*
X352047Y294882D01*
X352883Y294047D01*
D02*
G37*
G36*
X358559Y297377D02*
X358262Y297526D01*
X357977Y297640D01*
X357703Y297718D01*
X357441Y297761D01*
X357191Y297769D01*
X356952Y297741D01*
X356725Y297679D01*
X356510Y297581D01*
X356306Y297447D01*
X356114Y297279D01*
X355742Y298577D01*
X355845Y298692D01*
X355960Y298841D01*
X356086Y299026D01*
X356375Y299500D01*
X356897Y300474D01*
X357304Y301299D01*
X358559Y297377D01*
D02*
G37*
G36*
X349883Y298047D02*
X349786Y297945D01*
X349699Y297843D01*
X349623Y297740D01*
X349557Y297637D01*
X349501Y297534D01*
X349456Y297430D01*
X349421Y297327D01*
X349396Y297223D01*
X349382Y297118D01*
X349378Y297014D01*
X348014Y298378D01*
X348118Y298382D01*
X348223Y298396D01*
X348327Y298421D01*
X348430Y298456D01*
X348534Y298501D01*
X348637Y298557D01*
X348740Y298623D01*
X348843Y298699D01*
X348945Y298786D01*
X349047Y298883D01*
X349883Y298047D01*
D02*
G37*
G36*
X360678Y307086D02*
X360237Y306978D01*
X358799Y306524D01*
X358522Y306405D01*
X358278Y306284D01*
X358066Y306161D01*
X357887Y306035D01*
X357742Y305907D01*
X356699Y306534D01*
X356860Y306718D01*
X356994Y306922D01*
X357101Y307146D01*
X357182Y307390D01*
X357235Y307653D01*
X357262Y307936D01*
X357262Y308238D01*
X357235Y308560D01*
X357181Y308902D01*
X357100Y309264D01*
X360678Y307086D01*
D02*
G37*
G36*
X425000Y345000D02*
X355000D01*
Y370000D01*
X425000D01*
Y345000D01*
D02*
G37*
%LPC*%
G36*
X418695Y359409D02*
X415590D01*
Y356305D01*
X415976Y356356D01*
X416886Y356733D01*
X417667Y357332D01*
X418267Y358114D01*
X418644Y359024D01*
X418695Y359409D01*
D02*
G37*
G36*
X415590Y363695D02*
Y360591D01*
X418695D01*
X418644Y360976D01*
X418267Y361886D01*
X417667Y362667D01*
X416886Y363267D01*
X415976Y363644D01*
X415590Y363695D01*
D02*
G37*
G36*
X414409D02*
X414024Y363644D01*
X413114Y363267D01*
X412332Y362667D01*
X411733Y361886D01*
X411356Y360976D01*
X411305Y360591D01*
X414409D01*
Y363695D01*
D02*
G37*
G36*
Y359409D02*
X411305D01*
X411356Y359024D01*
X411733Y358114D01*
X412332Y357332D01*
X413114Y356733D01*
X414024Y356356D01*
X414409Y356305D01*
Y359409D01*
D02*
G37*
G36*
X370000Y353653D02*
X369055Y353529D01*
X368173Y353164D01*
X367417Y352583D01*
X366836Y351827D01*
X366471Y350945D01*
X366347Y350000D01*
X366471Y349055D01*
X366836Y348173D01*
X367417Y347417D01*
X368173Y346836D01*
X369055Y346471D01*
X370000Y346347D01*
X370946Y346471D01*
X371827Y346836D01*
X372583Y347417D01*
X373164Y348173D01*
X373529Y349055D01*
X373653Y350000D01*
X373529Y350945D01*
X373164Y351827D01*
X372583Y352583D01*
X371827Y353164D01*
X370946Y353529D01*
X370000Y353653D01*
D02*
G37*
G36*
X363795Y349410D02*
X360591D01*
Y346205D01*
X362992D01*
X363299Y346266D01*
X363560Y346440D01*
X363734Y346701D01*
X363795Y347008D01*
Y349410D01*
D02*
G37*
G36*
X359409D02*
X356205D01*
Y347008D01*
X356266Y346701D01*
X356440Y346440D01*
X356701Y346266D01*
X357008Y346205D01*
X359409D01*
Y349410D01*
D02*
G37*
G36*
X362992Y353795D02*
X360591D01*
Y350590D01*
X363795D01*
Y352992D01*
X363734Y353299D01*
X363560Y353560D01*
X363299Y353734D01*
X362992Y353795D01*
D02*
G37*
G36*
X359409D02*
X357008D01*
X356701Y353734D01*
X356440Y353560D01*
X356266Y353299D01*
X356205Y352992D01*
Y350590D01*
X359409D01*
Y353795D01*
D02*
G37*
G36*
X415000Y353614D02*
X414065Y353490D01*
X413193Y353129D01*
X412445Y352555D01*
X411871Y351807D01*
X411510Y350935D01*
X411386Y350000D01*
X411510Y349065D01*
X411871Y348193D01*
X412445Y347445D01*
X413193Y346871D01*
X414065Y346510D01*
X415000Y346386D01*
X415935Y346510D01*
X416807Y346871D01*
X417555Y347445D01*
X418129Y348193D01*
X418490Y349065D01*
X418614Y350000D01*
X418490Y350935D01*
X418129Y351807D01*
X417555Y352555D01*
X416807Y353129D01*
X415935Y353490D01*
X415000Y353614D01*
D02*
G37*
G36*
X417953Y298595D02*
X412047D01*
X411801Y298546D01*
X411593Y298407D01*
X411454Y298199D01*
X411405Y297953D01*
Y292047D01*
X411454Y291802D01*
X411593Y291593D01*
X411801Y291454D01*
X412047Y291405D01*
X417953D01*
X418198Y291454D01*
X418407Y291593D01*
X418546Y291802D01*
X418595Y292047D01*
Y293111D01*
X419095Y293318D01*
X423390Y289023D01*
X423439Y288958D01*
X423480Y288894D01*
X423511Y288835D01*
X423535Y288781D01*
X423551Y288732D01*
X423562Y288687D01*
X423563Y288681D01*
X423543Y288583D01*
X423699Y287799D01*
X424143Y287135D01*
X424807Y286691D01*
X425591Y286536D01*
X426374Y286691D01*
X427038Y287135D01*
X427482Y287799D01*
X427638Y288583D01*
X427482Y289366D01*
X427038Y290030D01*
X426374Y290474D01*
X425591Y290630D01*
X425492Y290610D01*
X425486Y290611D01*
X425441Y290622D01*
X425392Y290638D01*
X425338Y290662D01*
X425279Y290694D01*
X425215Y290735D01*
X425150Y290783D01*
X420053Y295880D01*
X419649Y296150D01*
X419173Y296244D01*
X418857D01*
X418772Y296252D01*
X418648Y296272D01*
X418595Y296286D01*
Y297953D01*
X418546Y298199D01*
X418407Y298407D01*
X418198Y298546D01*
X417953Y298595D01*
D02*
G37*
G36*
X415000Y308614D02*
X414065Y308490D01*
X413193Y308129D01*
X412445Y307555D01*
X411871Y306807D01*
X411510Y305935D01*
X411386Y305000D01*
X411510Y304065D01*
X411871Y303193D01*
X412445Y302445D01*
X413193Y301871D01*
X414065Y301509D01*
X415000Y301386D01*
X415935Y301509D01*
X416807Y301871D01*
X417555Y302445D01*
X418129Y303193D01*
X418490Y304065D01*
X418614Y305000D01*
X418490Y305935D01*
X418129Y306807D01*
X417555Y307555D01*
X416807Y308129D01*
X415935Y308490D01*
X415000Y308614D01*
D02*
G37*
G36*
X424016Y255984D02*
X423232Y255828D01*
X422568Y255385D01*
X422512Y255301D01*
X422508Y255297D01*
X422468Y255273D01*
X422422Y255250D01*
X422367Y255229D01*
X422303Y255210D01*
X422229Y255193D01*
X422148Y255181D01*
X418009D01*
X417929Y255193D01*
X417854Y255210D01*
X417791Y255229D01*
X417736Y255250D01*
X417689Y255273D01*
X417650Y255298D01*
X417645Y255301D01*
X417589Y255385D01*
X416925Y255828D01*
X416142Y255984D01*
X415358Y255828D01*
X414694Y255385D01*
X414250Y254720D01*
X414094Y253937D01*
X414250Y253154D01*
X414694Y252489D01*
X415358Y252046D01*
X416142Y251890D01*
X416925Y252046D01*
X417589Y252489D01*
X417645Y252573D01*
X417650Y252576D01*
X417689Y252601D01*
X417736Y252624D01*
X417791Y252645D01*
X417854Y252664D01*
X417929Y252681D01*
X418009Y252693D01*
X422148D01*
X422229Y252681D01*
X422303Y252664D01*
X422367Y252645D01*
X422422Y252624D01*
X422468Y252601D01*
X422508Y252576D01*
X422512Y252573D01*
X422568Y252489D01*
X423232Y252046D01*
X424016Y251890D01*
X424799Y252046D01*
X425463Y252489D01*
X425907Y253154D01*
X426063Y253937D01*
X425907Y254720D01*
X425463Y255385D01*
X424799Y255828D01*
X424016Y255984D01*
D02*
G37*
G36*
X418695Y314409D02*
X415590D01*
Y311305D01*
X415976Y311356D01*
X416886Y311733D01*
X417667Y312333D01*
X418267Y313114D01*
X418644Y314024D01*
X418695Y314409D01*
D02*
G37*
G36*
X414409D02*
X411305D01*
X411356Y314024D01*
X411733Y313114D01*
X412332Y312333D01*
X413114Y311733D01*
X414024Y311356D01*
X414409Y311305D01*
Y314409D01*
D02*
G37*
G36*
X415590Y318695D02*
Y315591D01*
X418695D01*
X418644Y315976D01*
X418267Y316886D01*
X417667Y317668D01*
X416886Y318267D01*
X415976Y318644D01*
X415590Y318695D01*
D02*
G37*
G36*
X414409D02*
X414024Y318644D01*
X413114Y318267D01*
X412332Y317668D01*
X411733Y316886D01*
X411356Y315976D01*
X411305Y315591D01*
X414409D01*
Y318695D01*
D02*
G37*
G36*
X415000Y328614D02*
X414065Y328490D01*
X413193Y328129D01*
X412445Y327555D01*
X411871Y326807D01*
X411510Y325935D01*
X411386Y325000D01*
X411510Y324065D01*
X411871Y323193D01*
X412445Y322445D01*
X413193Y321871D01*
X414065Y321510D01*
X415000Y321386D01*
X415935Y321510D01*
X416807Y321871D01*
X417555Y322445D01*
X418129Y323193D01*
X418490Y324065D01*
X418614Y325000D01*
X418490Y325935D01*
X418129Y326807D01*
X417555Y327555D01*
X416807Y328129D01*
X415935Y328490D01*
X415000Y328614D01*
D02*
G37*
%LPD*%
G36*
X417940Y296069D02*
X417976Y295969D01*
X418035Y295880D01*
X418119Y295803D01*
X418226Y295738D01*
X418357Y295685D01*
X418512Y295644D01*
X418691Y295614D01*
X418894Y295597D01*
X419121Y295590D01*
Y294409D01*
X418894Y294404D01*
X418691Y294386D01*
X418512Y294356D01*
X418357Y294315D01*
X418226Y294262D01*
X418119Y294197D01*
X418035Y294120D01*
X417976Y294032D01*
X417940Y293931D01*
X417928Y293819D01*
Y296181D01*
X417940Y296069D01*
D02*
G37*
G36*
X424645Y290368D02*
X424748Y290282D01*
X424850Y290206D01*
X424953Y290140D01*
X425057Y290084D01*
X425160Y290039D01*
X425264Y290004D01*
X425368Y289979D01*
X425472Y289965D01*
X425577Y289961D01*
X424213Y288597D01*
X424209Y288701D01*
X424194Y288805D01*
X424169Y288909D01*
X424134Y289013D01*
X424089Y289117D01*
X424033Y289220D01*
X423968Y289323D01*
X423891Y289426D01*
X423805Y289528D01*
X423708Y289630D01*
X424543Y290465D01*
X424645Y290368D01*
D02*
G37*
G36*
X417203Y254831D02*
X417287Y254767D01*
X417378Y254711D01*
X417476Y254662D01*
X417581Y254621D01*
X417693Y254587D01*
X417813Y254561D01*
X417939Y254542D01*
X418073Y254531D01*
X418214Y254528D01*
Y253346D01*
X418073Y253343D01*
X417939Y253331D01*
X417813Y253313D01*
X417693Y253287D01*
X417581Y253253D01*
X417476Y253212D01*
X417378Y253163D01*
X417287Y253107D01*
X417203Y253044D01*
X417126Y252972D01*
Y254902D01*
X417203Y254831D01*
D02*
G37*
G36*
X423032Y252972D02*
X422955Y253044D01*
X422871Y253107D01*
X422780Y253163D01*
X422682Y253212D01*
X422577Y253253D01*
X422464Y253287D01*
X422345Y253313D01*
X422218Y253331D01*
X422085Y253343D01*
X421944Y253346D01*
Y254528D01*
X422085Y254531D01*
X422218Y254542D01*
X422345Y254561D01*
X422464Y254587D01*
X422577Y254621D01*
X422682Y254662D01*
X422780Y254711D01*
X422871Y254767D01*
X422955Y254831D01*
X423032Y254902D01*
Y252972D01*
D02*
G37*
D13*
X408268Y291732D02*
Y297638D01*
X416142Y253937D02*
X424016D01*
X419173Y295000D02*
X425591Y288583D01*
X415000Y295000D02*
X419173D01*
X360000Y309000D02*
Y310000D01*
X348000Y297000D02*
X360000Y309000D01*
X358000Y300000D02*
X360000D01*
X351000Y293000D02*
X358000Y300000D01*
D15*
X400000Y280000D02*
D03*
X390000Y260000D02*
D03*
Y270000D02*
D03*
X400000D02*
D03*
Y260000D02*
D03*
X330000Y270000D02*
D03*
X340000Y250000D02*
D03*
Y260000D02*
D03*
X330000D02*
D03*
Y250000D02*
D03*
X390000Y325000D02*
D03*
X400000Y305000D02*
D03*
Y315000D02*
D03*
X390000D02*
D03*
Y305000D02*
D03*
D16*
Y280000D02*
D03*
X340000Y270000D02*
D03*
X400000Y325000D02*
D03*
D17*
X415000D02*
D03*
Y315000D02*
D03*
Y305000D02*
D03*
Y350000D02*
D03*
Y360000D02*
D03*
X340000Y350000D02*
D03*
Y340000D02*
D03*
Y330000D02*
D03*
Y320000D02*
D03*
Y310000D02*
D03*
Y300000D02*
D03*
Y290000D02*
D03*
D18*
X415000Y295000D02*
D03*
Y340000D02*
D03*
X340000Y360000D02*
D03*
D19*
X370000Y260000D02*
D03*
X360000D02*
D03*
X370000Y270000D02*
D03*
X360000D02*
D03*
X370000Y280000D02*
D03*
X360000D02*
D03*
X370000Y290000D02*
D03*
X360000D02*
D03*
X370000Y300000D02*
D03*
X360000D02*
D03*
X370000Y310000D02*
D03*
X360000D02*
D03*
X370000Y320000D02*
D03*
X360000D02*
D03*
X370000Y330000D02*
D03*
X360000D02*
D03*
X370000Y340000D02*
D03*
X360000D02*
D03*
X370000Y350000D02*
D03*
D20*
X360000D02*
D03*
D21*
X413700Y239400D02*
D03*
X408268Y291732D02*
D03*
Y297638D02*
D03*
X416142Y253937D02*
D03*
X424016D02*
D03*
X425591Y288583D02*
D03*
X348000Y297000D02*
D03*
X351000Y293000D02*
D03*
M02*
