M48
;Layer_Color=9474304
;FILE_FORMAT=2:5
INCH,TZ
;TYPE=PLATED
T1F00S00C0.01181
T2F00S00C0.03543
T3F00S00C0.04016
T4F00S00C0.04331
%
T01
X351000Y293000
X348000Y297000
X408268Y297638
Y291732
X425591Y288583
X424016Y253937
X416142
X413700Y239400
T02
X340000Y290000
Y300000
Y310000
X415000Y305000
Y295000
Y315000
Y325000
Y340000
Y350000
Y360000
X340000
Y350000
Y340000
Y330000
Y320000
T03
X360000Y260000
X370000
Y270000
X360000
Y280000
X370000
Y290000
X360000
Y300000
X370000
Y310000
X360000
Y320000
X370000
Y330000
X360000
Y340000
X370000
Y350000
X360000
T04
X330000Y250000
X340000
Y260000
Y270000
X330000
Y260000
X390000
Y270000
Y280000
X400000
Y270000
Y260000
Y305000
X390000
Y315000
Y325000
X400000
Y315000
M30
