G04 Layer_Color=16711935*
%FSLAX25Y25*%
%MOIN*%
G70*
G01*
G75*
%ADD32C,0.06899*%
%ADD33R,0.06899X0.06899*%
%ADD34C,0.06506*%
%ADD35R,0.06506X0.06506*%
%ADD36C,0.06584*%
%ADD37R,0.06584X0.06584*%
D32*
X400000Y280000D02*
D03*
X390000Y260000D02*
D03*
Y270000D02*
D03*
X400000D02*
D03*
Y260000D02*
D03*
X330000Y270000D02*
D03*
X340000Y250000D02*
D03*
Y260000D02*
D03*
X330000D02*
D03*
Y250000D02*
D03*
X390000Y325000D02*
D03*
X400000Y305000D02*
D03*
Y315000D02*
D03*
X390000D02*
D03*
Y305000D02*
D03*
D33*
Y280000D02*
D03*
X340000Y270000D02*
D03*
X400000Y325000D02*
D03*
D34*
X415000D02*
D03*
Y315000D02*
D03*
Y305000D02*
D03*
Y350000D02*
D03*
Y360000D02*
D03*
X340000Y350000D02*
D03*
Y340000D02*
D03*
Y330000D02*
D03*
Y320000D02*
D03*
Y310000D02*
D03*
Y300000D02*
D03*
Y290000D02*
D03*
D35*
X415000Y295000D02*
D03*
Y340000D02*
D03*
X340000Y360000D02*
D03*
D36*
X370000Y260000D02*
D03*
X360000D02*
D03*
X370000Y270000D02*
D03*
X360000D02*
D03*
X370000Y280000D02*
D03*
X360000D02*
D03*
X370000Y290000D02*
D03*
X360000D02*
D03*
X370000Y300000D02*
D03*
X360000D02*
D03*
X370000Y310000D02*
D03*
X360000D02*
D03*
X370000Y320000D02*
D03*
X360000D02*
D03*
X370000Y330000D02*
D03*
X360000D02*
D03*
X370000Y340000D02*
D03*
X360000D02*
D03*
X370000Y350000D02*
D03*
D37*
X360000D02*
D03*
M02*
