M48
;Layer_Color=9474304
;FILE_FORMAT=2:5
INCH,TZ
;TYPE=PLATED
T1F00S00C0.01181
T2F00S00C0.03937
T3F00S00C0.04016
T4F00S00C0.04331
T5F00S00C0.05118
%
T01
X288500Y371500
Y391500
X282500Y395000
X290000Y403000
X295500Y399500
X285000Y435000
X245000Y464000
T02
X175000Y440000
X245000
T03
X270000Y360000
X280000
Y370000
X270000
Y380000
X280000
Y390000
X270000
Y400000
X280000
Y410000
X270000
Y420000
X280000
Y430000
X270000
Y440000
X280000
Y450000
X270000
T04
X140000Y380000
Y390000
Y400000
Y410000
Y420000
Y430000
Y440000
Y450000
X150000
Y440000
Y430000
Y420000
Y410000
Y400000
Y390000
Y380000
X320000
Y370000
Y360000
Y350000
Y340000
Y330000
X330000
Y340000
Y350000
Y360000
Y370000
Y380000
Y396000
X320000
Y406000
Y416000
Y426000
Y436000
Y446000
Y456000
Y466000
X330000
Y456000
Y446000
Y436000
Y426000
Y416000
Y406000
Y476000
X320000
Y486000
X330000
T05
X200315Y475000
X220000
M30
